<?xml version='1.0' encoding='utf-8'?>
<svg xmlns="http://www.w3.org/2000/svg" width="19.7595cm" height="21.2414cm" version="1.1" style="shape-rendering:geometricPrecision; text-rendering:geometricPrecision; image-rendering:optimizeQuality; fill-rule:evenodd; clip-rule:evenodd" viewBox="0 0 19760 21241"> <defs> <style type="text/css">  .str0 {stroke:#250D01;stroke-width:75.0002} .fil0 {fill:#FEFEFE} .fil12 {fill:#FEFEFE} .fil14 {fill:black} .fil15 {fill:#120A05} .fil2 {fill:#3E2215} .fil11 {fill:#492D1A} .fil1 {fill:#54331E} .fil5 {fill:#844722} .fil13 {fill:#976705} .fil8 {fill:#C7792A} .fil4 {fill:#D46001} .fil7 {fill:#DAA150} .fil9 {fill:#DF9943} .fil10 {fill:#E2A356} .fil3 {fill:#ED9926} .fil17 {fill:#EFA33C} .fil6 {fill:#F3DC94} .fil16 {fill:#2B2A29;fill-rule:nonzero}  </style> </defs> <g id="Слой_x0020_1"> <metadata id="CorelCorpID_0Corel-Layer"/> <path id="Shape_x0020_from_x0020_Contour" class="fil0 str0" d="M14924 2282c709,-10 1280,138 1942,382 270,100 845,484 1061,693 443,432 805,1021 873,1655 33,313 19,661 20,978l0 28 -4 28c-54,359 -140,698 -287,1030 -172,390 -401,731 -693,1023 675,266 1151,987 1483,1611 245,453 411,706 352,1253 -15,144 2,138 -142,117 -208,-29 -364,-57 -539,-178 202,306 369,636 516,991 73,176 217,612 216,793 -1,124 -55,240 -154,314 -59,45 -128,71 -202,74 -189,8 -343,-123 -475,-243 -76,-68 -155,-134 -235,-198 111,259 190,532 241,847 36,224 42,468 32,695 -15,354 -84,846 -452,992l-308 123 -142 -307c-17,-37 -32,-74 -45,-111 -31,204 -69,398 -102,551 -96,441 -311,1287 -689,1544l-406 277 -133 -482c0,-2 -1,-4 -1,-6 -101,289 -233,567 -385,816l-4 7c-86,134 -185,259 -284,382 -106,131 -223,278 -353,383 -28,23 -54,49 -82,73 -28,25 -58,50 -89,72 -149,109 -321,144 -478,24 -26,-20 -49,-43 -69,-68 -77,117 -164,233 -259,347 -148,176 -303,344 -478,491 -172,143 -358,262 -546,373 -28,18 -54,38 -82,56 -169,107 -365,147 -529,3 -53,-47 -92,-107 -114,-175 -65,-201 28,-355 157,-494 127,-136 249,-271 358,-419 -60,69 -121,137 -183,204 -285,309 -593,589 -921,850 -92,74 -188,143 -289,204 -75,46 -153,88 -228,134 -236,130 -482,112 -604,-153 -36,69 -165,299 -98,371 227,242 245,287 419,576 21,35 238,375 222,390 -14,14 -824,-162 -896,-184 -87,-27 -151,-52 -232,-95 -45,-25 -213,-139 -252,-139 -54,1 -145,79 -311,48 -324,-63 -788,-563 -1024,-811 -118,-124 -238,-248 -357,-373 7,19 12,38 15,57 20,112 -9,228 -82,315 -136,164 -330,158 -506,78 -47,-22 -95,-46 -137,-76 -284,-200 -569,-400 -835,-627 -79,-68 -156,-138 -230,-210 50,78 86,159 83,262 -4,105 -47,204 -123,276 -162,151 -362,114 -536,13 -83,-48 -162,-105 -239,-164 -104,-78 -206,-160 -303,-247 -305,-272 -527,-536 -700,-826 -7,8 -15,15 -23,22 -169,146 -372,126 -543,-1 -467,-346 -804,-752 -1075,-1273 -76,-146 -147,-292 -210,-440 -41,97 -111,172 -227,210 -206,68 -373,-49 -479,-224 -383,-635 -549,-1056 -700,-1786 -22,-103 -15,-92 -85,6 -59,81 -204,285 -314,248 -243,-81 -465,-503 -525,-744 -137,-548 24,-1323 234,-1837l17 -42c-106,73 -211,148 -316,223 -25,17 -49,38 -73,57 -123,97 -278,133 -422,57 -208,-110 -218,-312 -178,-519 108,-569 325,-1093 641,-1559 -10,6 -21,13 -31,19 -30,18 -60,40 -90,60 -146,96 -302,139 -460,36 -199,-129 -194,-339 -135,-543 258,-907 905,-2018 1810,-2404 -525,-536 -920,-1278 -997,-2040 -105,-1055 36,-1735 732,-2564 723,-820 2255,-1291 3304,-1180 365,39 -89,-30 -207,-242 -126,-222 -25,-480 208,-556 471,-136 1826,97 2331,250 -155,-273 -226,-322 -437,-528 -224,-219 -177,-691 243,-680 362,9 987,386 1248,621 84,78 161,162 238,248 37,41 74,82 111,122 4,-6 8,-12 12,-18 49,-75 98,-151 152,-223 437,-561 1584,-1170 2278,-1234 474,-43 1438,189 1486,771 12,143 -68,108 210,90 219,-13 440,52 499,302 33,141 -13,272 -105,371 76,-10 152,-20 228,-29 249,-29 500,-53 751,-55 186,-2 371,-6 556,-1 42,1 84,3 125,8 189,22 345,118 377,325 21,129 -26,257 -120,344 -27,26 -57,46 -88,65 -31,18 -62,34 -94,49z"/> <path class="fil1" d="M1633 7168c233,391 564,796 970,999 301,151 291,132 -36,125 -1094,-24 -1898,1329 -2169,2280 -61,213 -1,130 161,30 239,-146 485,-285 714,-445 346,-241 1619,-550 1425,-423 -558,365 -801,405 -1284,932 -482,526 -797,1153 -934,1862 -35,193 -6,124 121,33 564,-403 1148,-792 1720,-1183l31 50c-286,425 -545,611 -798,1120 -247,500 -398,1076 -374,1640 9,217 78,464 233,619 177,-199 228,-645 351,-916 209,-462 698,-1070 1253,-987 -86,88 -309,240 -420,337 -625,544 -586,1070 -427,1839 119,574 324,1024 625,1520 100,165 90,3 108,-122 25,-182 17,-274 64,-474 54,-226 285,-1003 467,-1125 -152,975 -183,1287 290,2196 247,477 541,832 968,1149 26,19 66,52 106,18 18,-15 -98,-253 -114,-297 -246,-673 -319,-1298 67,-1934 27,-45 36,-62 77,-92 51,437 16,862 121,1309 193,795 428,1277 1035,1822 41,36 606,522 611,385 2,-42 -389,-518 -442,-599 -112,-172 -166,-312 -221,-510 -53,-206 -72,-688 21,-877 185,176 463,668 661,917 504,634 876,901 1521,1356 18,13 183,104 173,48 -5,-28 -186,-302 -220,-395 -101,-276 -103,-696 -126,-1000 -3,-32 87,94 103,112 362,423 803,873 1190,1279 90,95 180,189 271,283 109,113 423,381 566,427 108,35 -107,-255 -125,-285 -155,-269 -320,-938 -235,-1237 36,-125 80,-107 206,-120 378,-39 325,15 293,400 -52,621 -75,1030 524,1368 92,52 146,71 248,91 -116,-194 -356,-226 -295,-609 106,-531 730,-1174 1060,-1621 103,-139 141,-209 124,39 -21,319 -142,912 -355,1157 -73,84 -21,94 58,46 210,-129 269,-146 481,-314 718,-572 1066,-1002 1632,-1713 36,-44 274,-351 307,-352 171,262 -10,989 -158,1250 -160,283 -343,490 -560,723 -25,27 -106,105 -69,138 33,29 163,-75 198,-95 418,-248 618,-411 936,-789 662,-791 763,-1562 648,-2573 489,476 509,1540 200,2122 -140,264 105,14 178,-46 137,-111 459,-521 560,-678 416,-684 775,-1816 339,-2564 335,265 617,1249 658,1681 6,60 17,110 33,167 402,-273 786,-2226 660,-2704 -178,-675 -901,-999 -904,-1060 -4,-93 363,25 423,55 549,272 959,1052 1099,1639 21,88 37,152 75,234 282,-112 242,-1017 198,-1286 -132,-815 -454,-1261 -943,-1886 -44,-56 -74,-100 -111,-162 414,116 1297,760 1634,1064 21,20 240,221 240,128 1,-100 -143,-541 -187,-647 -387,-932 -876,-1600 -1724,-2137 -57,-36 -369,-150 -380,-196 516,-58 1608,540 2043,844 53,37 138,107 202,119 4,-264 -191,-552 -313,-781 -344,-645 -902,-1512 -1700,-1527 -402,-8 -395,17 -52,-236 425,-315 734,-708 951,-1199 255,-619 339,-1324 219,-1985 -179,-986 -1006,-1689 -1914,-2013 -783,-279 -1445,-361 -2265,-197l-40 8c-103,22 -197,40 -303,53 169,-910 1920,-949 269,-932 -366,4 -1083,82 -1432,176 -234,63 -527,195 -748,226 57,-275 466,-672 708,-796 81,-41 439,-215 116,-195 -588,36 -942,66 -1425,467 -65,54 -453,458 -482,435 -66,-53 118,-429 153,-490 184,-313 473,-649 838,-722 131,-26 200,-28 331,-78 27,-313 -713,-462 -940,-479 -556,-23 -1273,379 -1729,687 -483,335 -464,448 -783,886 -110,150 -63,133 -217,-29 -463,-487 -493,-630 -1149,-935 -54,-25 -573,-263 -304,-29 488,425 590,891 850,1457 -252,-99 -443,-232 -725,-328 -600,-199 -1532,-316 -2162,-289 -198,8 188,141 242,172 271,155 538,496 627,803 -1125,-186 -1651,-287 -2769,112 -878,317 -1493,801 -1828,1698 -164,439 -146,889 -105,1349 43,484 171,792 411,1212z"/> <path class="fil2" d="M2061 12691c297,-224 649,-353 1032,-296 196,29 348,157 412,345 63,187 19,382 -119,524 -136,139 -306,240 -451,366 -466,405 -377,785 -261,1346 10,48 21,96 33,143 116,-285 264,-549 439,-667 174,-117 388,-120 564,-7 177,112 265,307 232,514 -113,725 -159,995 71,1529 51,-249 147,-496 297,-744 62,-101 115,-168 212,-240 152,-112 338,-133 511,-58 173,75 284,225 306,413 48,408 16,853 111,1249 11,44 22,88 33,130 2,-5 5,-11 7,-16 75,-152 205,-250 372,-280 167,-30 323,17 446,134 278,265 468,666 709,969 150,189 293,347 439,488 -2,-40 -5,-80 -8,-119 -15,-199 85,-391 260,-491 228,-130 487,-67 654,113 22,24 42,49 62,74 13,16 25,33 38,49 238,278 490,546 744,812 7,-56 17,-109 31,-158 47,-166 137,-306 288,-397 130,-77 222,-80 360,-94 269,-28 532,-26 729,197 108,122 144,250 152,383 198,-260 413,-508 588,-745 28,-39 56,-78 87,-115 143,-174 354,-265 583,-199 286,83 376,311 385,557 313,-319 588,-655 897,-1043 176,-221 376,-537 694,-546 184,-5 345,79 445,233 19,28 35,58 50,89 60,-335 49,-692 3,-1095 -25,-220 86,-423 285,-520 199,-98 427,-62 586,93 216,210 367,492 458,804 155,-463 222,-986 15,-1342 -126,-216 -82,-485 107,-649 189,-163 462,-169 658,-14 168,134 319,360 445,622 79,-407 121,-792 88,-942 -53,-202 -198,-368 -353,-500 -229,-194 -550,-314 -567,-667 -5,-105 20,-209 73,-300 175,-300 501,-307 792,-234 96,24 212,59 301,103 105,52 206,117 302,192 -137,-235 -307,-457 -507,-713 -54,-69 -102,-138 -147,-213 -111,-185 -99,-407 32,-578 130,-171 341,-242 548,-184 149,42 332,127 525,236 -250,-340 -557,-629 -962,-887 -250,-123 -535,-187 -618,-514 -39,-149 -13,-293 75,-420 88,-127 213,-202 366,-219 337,-38 742,84 1090,227 -228,-292 -508,-540 -810,-545 -80,-2 -160,-1 -240,-5 -244,-12 -462,-122 -545,-376 -84,-258 34,-477 229,-630 67,-53 138,-103 207,-154 355,-263 605,-585 784,-987 216,-527 289,-1130 187,-1691 -146,-798 -852,-1360 -1581,-1620 -691,-246 -1267,-322 -1991,-177l-37 8c-114,23 -227,45 -342,59 -169,22 -323,-34 -439,-157 -117,-123 -163,-280 -132,-447 18,-97 46,-189 84,-275 -221,26 -438,63 -607,109 -275,74 -522,198 -810,239 -171,24 -329,-32 -447,-158 -69,-73 -113,-158 -131,-250 -49,47 -99,94 -151,139 -209,182 -485,281 -747,73 -368,-293 -162,-825 30,-1153 95,-162 208,-321 339,-462 -387,104 -841,375 -1104,555 -384,263 -389,395 -658,764 -126,173 -233,304 -480,315 -104,4 -184,-13 -250,-47 -19,90 -63,175 -131,246 -147,156 -363,205 -563,126 -239,-94 -461,-238 -701,-319 -210,-70 -459,-129 -719,-173 34,76 63,152 85,227 51,175 11,349 -110,485 -121,137 -289,196 -469,167 -1025,-170 -1503,-274 -2511,88 -737,265 -1239,644 -1519,1394 -133,355 -108,753 -75,1124 36,402 145,650 343,997 176,295 444,643 756,799 58,29 118,58 176,88 34,18 67,37 98,60 178,127 267,343 211,561 -106,416 -455,397 -764,391 -404,-9 -767,290 -1053,676 91,-33 181,-62 263,-88 192,-61 390,-115 586,-158 77,-17 156,-32 234,-41 268,-31 535,74 625,364 74,238 -30,474 -230,605 -475,311 -791,417 -1187,849 -69,75 -134,153 -195,233 145,-98 289,-196 433,-295 120,-82 254,-109 397,-78 143,30 255,108 331,233l31 50c109,176 105,387 -10,558 -232,345 -519,615 -719,976z"/> <path class="fil3" d="M4031 7194c607,-10 1162,-258 1511,-781 123,-183 266,-140 458,-102 338,66 908,117 1239,13 233,-82 265,-220 198,-448 -90,-305 -454,-163 -84,-405 166,-108 376,-331 148,-496 -309,-192 -798,-143 -1203,-386 -515,-306 -738,-280 -1279,-416 -233,-59 -727,-127 -988,-131 -966,0 -1750,706 -1750,1576 0,870 784,1576 1750,1576z"/> <path class="fil4" d="M5037 6337c-79,-266 -675,-385 -900,-425 -362,-65 -1026,-71 -1057,435 -41,656 1134,705 1588,727 130,7 377,-621 369,-737z"/> <path class="fil3" d="M15559 7194c-607,-10 -1162,-258 -1511,-781 -122,-183 -265,-140 -458,-102 -337,66 -907,117 -1239,13 -233,-82 -264,-220 -197,-448 89,-305 454,-163 83,-405 -166,-108 -376,-331 -148,-496 309,-192 799,-143 1203,-386 516,-306 738,-280 1279,-416 233,-59 727,-127 988,-131 967,0 1750,706 1750,1576 0,870 -783,1576 -1750,1576z"/> <path class="fil4" d="M15065 7012c393,148 1113,54 1413,-258 305,-318 27,-795 -450,-838 -268,-24 -1111,154 -1328,328 -232,185 102,616 296,731l69 37z"/> <path class="fil5" d="M15057 10428c79,863 -50,699 -571,1301 -205,236 -692,867 -910,1019l228 893 11 -98 54 309c3,-14 342,-358 397,-439 288,-417 726,-1269 882,-1722 209,-607 49,-937 26,-1533 5,-319 -23,-1781 -227,-2088 -108,-162 -94,27 -165,-380 -60,-344 -136,-216 -449,-354 -172,-76 6,178 67,309 480,1044 552,1650 657,2783z"/> <path class="fil5" d="M4523 7872c3,6 -9,1629 -1,1830 25,580 -145,1274 -15,1783 146,575 614,1415 993,1898 122,155 429,406 478,489l206 -1121c-130,80 -735,-724 -848,-854 -140,-161 -287,-311 -426,-470 -253,-289 -287,-190 -286,-604 0,-1074 144,-2056 582,-3032 -70,-25 96,-134 19,-262 -76,52 -135,251 -181,264 -18,-41 17,-111 30,-154 13,-45 -1,-110 9,-183 -263,160 -73,1115 -535,895l-25 -479z"/> <path class="fil6" d="M12432 12802l-317 256c-153,1203 -2764,1108 -2151,3141 159,528 1166,996 1667,1042 571,15 1168,-211 1537,-672 136,-170 381,-796 435,-999 289,-1067 303,-1628 11,-2683l-38 -139 -198 -348 -946 402z"/> <path class="fil7" d="M9946 16134c6,22 12,43 18,65 159,528 1166,996 1667,1042 571,15 1168,-211 1537,-672 136,-170 381,-796 435,-999 289,-1067 303,-1628 11,-2683l-38 -139 -198 -348 -204 87c220,955 168,1550 -120,2617 -58,213 -305,848 -430,1023 -328,408 -872,607 -1385,600 -272,-31 -640,-188 -873,-314 -92,-49 -273,-160 -420,-279z"/> <path class="fil8" d="M4624 10823c0,414 33,315 286,604 139,159 286,309 426,470 113,130 718,934 848,854l175 -325c-124,-63 524,-677 597,-742 258,-229 516,-405 811,-577l25 -5c288,-44 -1252,1306 -1357,1303 368,193 651,344 939,468l3 -9 137 66 88 85c168,-369 1985,-2466 2235,-2354 374,166 2303,2012 2250,2362l28 35 312 -259c2,1 3,3 5,3l946 -402 198 348c218,-152 705,-783 910,-1019 521,-602 650,-438 571,-1301 -118,-1205 -269,-1982 -800,-3084 -39,-45 -76,-92 -113,-140 14,18 28,35 42,52 105,130 56,27 208,116 382,340 249,314 443,751 71,160 292,620 415,733l21 19c-32,-246 -92,-437 -109,-696 -24,-376 -11,-497 -130,-872 -23,-72 -49,-141 -77,-212 -21,-47 -44,-92 -67,-138 -87,-165 -203,-381 -326,-519 -232,-205 -514,-394 -763,-579 -54,-40 -107,-81 -160,-121l2 -47c221,34 1803,300 1871,257 150,-94 -1042,-673 -1148,-721 -257,-106 -608,-185 -884,-225 -489,-69 -521,45 -918,91 327,-386 1214,-670 1702,-786 257,-60 674,-135 906,-215 -65,-53 -1619,84 -1831,122 -503,91 -1141,377 -1652,537 -105,33 -23,-53 21,-114 333,-461 989,-913 1486,-1174 194,-102 654,-350 81,-208 -776,192 -1508,711 -2044,1310 -521,590 -960,1270 -1245,2012 -203,528 -125,382 -245,-1 -255,-812 -1272,-2195 -1966,-2672 -342,-220 -1161,-662 -1552,-662 -162,0 299,178 331,193 608,294 857,569 1333,1029 81,77 162,155 243,233 -91,107 -499,-95 -607,-141 -940,-384 -2024,-526 -3032,-467 -332,20 273,80 317,88 436,72 870,327 1306,458 323,97 561,264 779,544 -992,-167 -1500,-65 -2361,445 -887,526 534,217 765,182 232,-35 463,-68 695,-97 27,68 7,50 -72,108 -225,166 -786,522 -912,743 -214,387 -422,784 -555,1207 -109,346 -241,704 -397,1032 -75,156 64,89 161,48 313,-132 605,-476 766,-768 80,-146 226,-424 201,-39 -32,487 -332,676 -424,1157 -10,50 -17,100 -25,151 -51,351 -88,673 -103,1027 -5,134 -8,269 -10,403l0 45zm8735 1538c55,297 -822,-529 -879,-577 -136,-116 -295,-246 -418,-374 -75,-77 -421,-364 -336,-412 47,45 372,203 468,264 129,83 733,572 836,678 100,104 286,383 329,421z"/> <path class="fil9" d="M7602 12998l13 110c-18,-210 415,-84 545,-65 206,29 420,40 623,83 316,68 620,353 1021,401 292,35 754,-272 1035,-380 101,-38 1138,-156 1248,-141 53,-353 -1876,-2213 -2250,-2381 -250,-113 -2067,2001 -2235,2373z"/> <path class="fil10" d="M11011 11973c170,-76 27,-171 -87,-287 -227,-230 -864,-951 -1187,-878 -344,77 -937,811 -1111,1124 260,81 1003,449 1222,420 166,-21 950,-305 1163,-379z"/> <path class="fil11" d="M13359 12359c-45,-40 -239,-331 -343,-440 -107,-111 -738,-620 -873,-707 -100,-64 -438,-229 -487,-275 -89,50 272,349 350,430 128,133 294,268 436,389 59,51 974,912 917,603z"/> <path class="fil11" d="M6359 12426l78 -22c111,3 1776,-1458 1372,-1336 -304,177 -570,358 -835,594 -75,67 -742,699 -615,764z"/> <path class="fil12" d="M12496 10129c30,25 70,58 94,81 99,-17 146,-57 166,-213 9,-73 46,-219 129,-240 203,-53 270,285 301,419 66,12 115,-16 160,-62 45,-45 35,-142 31,-202 -33,-277 -328,-333 -552,-285 -124,26 -189,63 -273,159 -100,115 -70,206 -56,343z"/> <path class="fil12" d="M6205 10054l147 78c10,-42 90,-54 122,-202 21,-92 46,-181 161,-162 251,43 174,374 227,454 205,60 364,-441 -63,-584 -360,-122 -539,83 -594,416z"/> <path class="fil13" d="M13186 10176c-55,453 -681,164 -596,34 -24,-23 -64,-56 -94,-81 6,176 -118,265 65,488 246,300 695,61 779,-161 40,-108 95,-455 37,-544 4,60 14,157 -31,202 -45,46 -94,74 -160,62z"/> <path class="fil12" d="M12246 9460c120,-413 1260,-176 1554,-96l31 -45c-103,-179 -682,-249 -870,-251 -169,-2 -337,10 -495,73 -99,40 -329,195 -220,319z"/> <path class="fil12" d="M5853 9283l6 59c306,-73 1457,-333 1529,179 145,-75 31,-278 -115,-348 -149,-70 -309,-107 -474,-109 -330,-5 -656,51 -946,219z"/> <path class="fil14" d="M5859 9342l27 662c141,304 336,793 746,770l137 -9c-159,-76 -244,-7 -438,-206 -126,-129 -150,-331 -126,-505 55,-333 234,-538 594,-416 427,143 268,644 63,584 -53,-80 24,-411 -227,-454 -115,-19 -140,70 -161,162 -32,148 -112,160 -122,202 -74,365 688,220 750,264l20 -1 9 195 243 -998 14 -71c-72,-512 -1223,-252 -1529,-179z"/> <path class="fil14" d="M13377 9912c58,89 3,436 -37,544 -84,222 -533,461 -779,161 -183,-223 -59,-312 -65,-488 -14,-137 -44,-228 56,-343 84,-96 149,-133 273,-159 224,-48 519,8 552,285zm-1131 -452l0 70c5,405 62,1186 570,1259 503,72 858,-400 985,-842l-1 -583c-294,-80 -1434,-317 -1554,96z"/> <path class="fil15" d="M12590 10210c-85,130 541,419 596,-34 -31,-134 -98,-472 -301,-419 -83,21 -120,167 -129,240 -20,156 -67,196 -166,213z"/> <path class="fil6" d="M11756 10679l-97 239c213,1 389,114 615,113 202,0 397,-24 597,-52 250,-34 860,-143 1088,-213 6,-82 -45,-661 -68,-776 -39,-196 -49,-79 -91,-40 -127,446 -484,923 -989,850 -509,-74 -567,-861 -572,-1270l-483 1149z"/> <path class="fil6" d="M7131 10590l-499 184c-410,23 -605,-466 -746,-770 -103,-102 -98,192 -108,299 -13,129 -41,297 -36,422 421,122 1092,290 1533,294 136,-3 257,-46 385,-60 81,-9 125,0 185,52 17,15 -21,-74 -23,-79 -115,-322 -222,-659 -330,-985 -40,-118 -79,-237 -118,-355l-243 998z"/> <path class="fil16" d="M12846 14123c260,-79 1588,-495 1756,-379 -3,176 -2062,761 -2157,597 -75,-130 313,-191 401,-218zm-530 1592c-228,-510 2882,1402 1605,880 -252,-103 -1462,-706 -1605,-880zm258 -784c477,-110 2870,732 1358,461 -244,-44 -1232,-244 -1368,-432l10 -29z"/> <path class="fil6" d="M7319 12775l316 256c154,1203 2765,1108 2152,3141 -159,527 -1166,996 -1667,1042 -572,15 -1168,-211 -1537,-672 -136,-170 -381,-796 -435,-999 -289,-1067 -303,-1628 -11,-2683l38 -139 197 -348 947 402z"/> <path class="fil7" d="M9794 16145c-2,9 -5,18 -7,27 -159,527 -1166,996 -1667,1042 -572,15 -1168,-211 -1537,-672 -136,-170 -381,-796 -435,-999 -289,-1067 -303,-1628 -11,-2683l38 -139 197 -348 194 82c-209,936 -152,1537 135,2599 58,216 309,860 436,1037 333,414 884,616 1405,609 276,-32 649,-191 886,-319 81,-43 230,-134 366,-236z"/> <path class="fil16" d="M6936 14123c-260,-79 -1589,-495 -1757,-379 4,176 2063,761 2158,597 75,-130 -313,-191 -401,-218zm530 1592c227,-510 -2882,1402 -1605,880 251,-103 1461,-706 1605,-880zm-259 -784c-476,-110 -2870,732 -1358,461 245,-44 1232,-244 1369,-432l-11 -29z"/> <path class="fil3" d="M6956 11684c225,-199 557,-451 829,-574 53,-24 89,-68 48,-125 -53,-75 -249,-14 -326,2 -75,16 -156,30 -232,32 -396,-9 -1075,-149 -1453,-272 -93,-30 -82,-17 -77,-144 3,-81 44,-587 92,-615 55,-32 52,115 41,-174 -4,-110 -9,-447 -29,-536 -23,-96 339,-179 407,-198 35,-9 68,-17 103,-25 428,-68 275,63 465,-349 169,-366 348,-744 540,-1097 99,-182 184,-377 262,-569 139,-331 187,-284 533,-366 792,-189 1509,-432 354,-972 -543,-255 -1268,-342 -1791,4 -874,578 -1620,2114 -1873,3111 -151,597 -244,1412 -229,2026 9,382 181,485 434,749 299,311 537,655 823,955 253,266 316,255 453,-72 50,-119 -8,-98 113,-255 130,-170 352,-389 513,-536z"/> <path class="fil17" d="M6324 11607c85,-233 -244,-277 -409,-313 -489,-108 -700,-258 -683,-807 8,-271 81,-541 93,-833 24,-599 17,-807 659,-1017 424,-139 374,-130 570,-538 186,-386 361,-770 543,-1156 240,-506 310,-571 839,-741 319,-103 179,-142 -49,-176l-44 -6c-847,-128 -1239,377 -1658,1027 -657,1019 -1015,2219 -1052,3430 -15,512 85,545 410,915 181,205 495,628 754,258l27 -43z"/> <path class="fil3" d="M11718 10748c-130,344 -9,249 284,405 281,150 899,624 1106,882 145,181 216,277 325,478 27,50 99,202 167,188 147,-29 632,-668 754,-815 180,-214 348,-377 536,-577 247,-263 199,-528 168,-875 -104,-1181 -229,-1965 -775,-3038 -43,-85 -232,-318 -304,-423 -482,-710 -913,-1446 -1880,-1474 -431,-13 -1201,207 -1433,589 -304,499 1007,456 1308,839 209,265 480,951 629,1287 84,188 272,687 431,786 157,97 553,56 793,254 108,89 13,51 -11,145 -24,90 -45,431 22,502 82,87 148,692 103,802 -49,118 -392,148 -516,171 -416,79 -1207,238 -1591,55 -97,-46 -114,-95 -111,-192l-5 11z"/> <path class="fil17" d="M14356 9629c3,212 83,506 106,740 66,657 -114,847 -741,965 -309,58 -493,116 -226,425 213,248 297,30 456,-176 174,-226 307,-342 493,-539 170,-182 119,-426 97,-662 -1,-4 -101,-1244 -176,-858 -7,36 -8,68 -9,105zm-2529 -3392c562,200 679,520 917,1034 151,325 287,673 439,990 224,466 388,257 811,495 162,91 261,184 366,335 36,52 -74,-302 -81,-325 -117,-391 -309,-922 -544,-1251 -251,-352 -586,-924 -895,-1190 -584,-501 -1333,-268 -1239,-178 31,30 181,75 226,90z"/> <path class="fil13" d="M6632 10774l499 -184 -9 -195 -20 1c-62,-44 -824,101 -750,-264l-147 -78c-24,174 0,376 126,505 194,199 279,130 438,206l-137 9z"/> <path class="fil16" d="M7754 14783c12,-138 -129,50 -29,31 18,-3 25,-16 29,-31zm-21 931c-65,128 152,7 42,-21 -18,-4 -32,7 -42,21zm-724 640c0,-5 -1,3 0,0zm581 -1109c-21,117 196,-104 45,-41 -21,8 -35,21 -45,41z"/> <path class="fil16" d="M11940 15036c11,-138 -130,50 -30,31 18,-4 25,-16 30,-31zm-22 930c-65,129 152,7 42,-20 -18,-5 -32,7 -42,20zm-724 640c0,-4 -1,4 0,0zm582 -1108c-22,117 195,-104 44,-42 -21,9 -35,21 -44,42z"/> <path class="fil16" d="M12233 14034c11,-138 -130,50 -29,31 17,-4 24,-16 29,-31zm-22 930c-64,129 152,7 43,-20 -19,-5 -33,7 -43,20zm-724 640c0,-4 0,4 0,0zm582 -1109c-22,118 195,-103 45,-41 -22,9 -35,21 -45,41z"/> <path class="fil16" d="M8091 14411c11,-138 -130,50 -29,31 17,-3 24,-16 29,-31zm-22 930c-64,129 153,7 43,-20 -18,-4 -32,7 -43,20zm-723 640c-1,-4 -1,4 0,0zm581 -1108c-21,117 196,-104 45,-42 -21,9 -35,21 -45,42z"/> <path class="fil16" d="M8219 14907c11,-138 -130,50 -29,31 17,-3 24,-16 29,-31zm-22 931c-64,128 153,7 43,-21 -18,-4 -32,7 -43,21zm-723 640c-1,-5 -1,3 0,0zm581 -1109c-21,117 196,-104 45,-41 -21,8 -35,20 -45,41z"/> <path class="fil16" d="M11645 14196c-11,-138 130,50 29,31 -17,-3 -24,-16 -29,-31zm22 930c64,129 -152,7 -43,-20 19,-4 33,7 43,20zm724 640c0,-4 1,4 0,0zm-582 -1108c22,117 -195,-104 -45,-41 22,8 35,20 45,41z"/> </g> </svg>